<mxfile host="app.diagrams.net" agent="Mozilla/5.0 (Windows NT 10.0; Win64; x64) AppleWebKit/537.36 (KHTML, like Gecko) Chrome/135.0.0.0 Safari/537.36" version="28.2.8">
  <diagram name="第 1 页" id="QIuwexWeCgDeS1hCWvbs">
    <mxGraphModel dx="1400" dy="758" grid="1" gridSize="10" guides="1" tooltips="1" connect="1" arrows="1" fold="1" page="1" pageScale="1" pageWidth="827" pageHeight="1169" math="0" shadow="0">
      <root>
        <mxCell id="0" />
        <mxCell id="1" parent="0" />
        <mxCell id="cHEMRX4sgkkI1tY1GG6U-5" value="" style="edgeStyle=orthogonalEdgeStyle;rounded=0;orthogonalLoop=1;jettySize=auto;html=1;" parent="1" source="y6OoboCwzPH_a1uWV_9v-1" target="cHEMRX4sgkkI1tY1GG6U-4" edge="1">
          <mxGeometry relative="1" as="geometry" />
        </mxCell>
        <mxCell id="y6OoboCwzPH_a1uWV_9v-1" value="提交线索" style="whiteSpace=wrap;html=1;" parent="1" vertex="1">
          <mxGeometry x="130" y="90" width="90" height="30" as="geometry" />
        </mxCell>
        <mxCell id="cHEMRX4sgkkI1tY1GG6U-7" value="" style="edgeStyle=orthogonalEdgeStyle;rounded=0;orthogonalLoop=1;jettySize=auto;html=1;" parent="1" source="cHEMRX4sgkkI1tY1GG6U-4" target="cHEMRX4sgkkI1tY1GG6U-6" edge="1">
          <mxGeometry relative="1" as="geometry" />
        </mxCell>
        <mxCell id="cHEMRX4sgkkI1tY1GG6U-4" value="分派线索" style="whiteSpace=wrap;html=1;" parent="1" vertex="1">
          <mxGeometry x="130" y="170" width="90" height="30" as="geometry" />
        </mxCell>
        <mxCell id="cHEMRX4sgkkI1tY1GG6U-11" value="" style="edgeStyle=orthogonalEdgeStyle;rounded=0;orthogonalLoop=1;jettySize=auto;html=1;exitX=0.5;exitY=1;exitDx=0;exitDy=0;" parent="1" source="cHEMRX4sgkkI1tY1GG6U-33" target="cHEMRX4sgkkI1tY1GG6U-10" edge="1">
          <mxGeometry relative="1" as="geometry" />
        </mxCell>
        <mxCell id="cHEMRX4sgkkI1tY1GG6U-27" value="" style="edgeStyle=orthogonalEdgeStyle;rounded=0;orthogonalLoop=1;jettySize=auto;html=1;" parent="1" source="cHEMRX4sgkkI1tY1GG6U-6" target="cHEMRX4sgkkI1tY1GG6U-26" edge="1">
          <mxGeometry relative="1" as="geometry" />
        </mxCell>
        <mxCell id="cHEMRX4sgkkI1tY1GG6U-6" value="接收线索" style="whiteSpace=wrap;html=1;" parent="1" vertex="1">
          <mxGeometry x="130" y="250" width="90" height="30" as="geometry" />
        </mxCell>
        <mxCell id="cHEMRX4sgkkI1tY1GG6U-14" value="" style="edgeStyle=orthogonalEdgeStyle;rounded=0;orthogonalLoop=1;jettySize=auto;html=1;exitX=0.425;exitY=1.133;exitDx=0;exitDy=0;exitPerimeter=0;" parent="1" source="MwiZSBfzjzbO6cHmACTo-20" target="cHEMRX4sgkkI1tY1GG6U-13" edge="1">
          <mxGeometry relative="1" as="geometry">
            <mxPoint x="480" y="500" as="sourcePoint" />
            <Array as="points">
              <mxPoint x="604" y="500" />
              <mxPoint x="175" y="500" />
            </Array>
          </mxGeometry>
        </mxCell>
        <mxCell id="MwiZSBfzjzbO6cHmACTo-18" value="" style="edgeStyle=orthogonalEdgeStyle;rounded=0;orthogonalLoop=1;jettySize=auto;html=1;" parent="1" source="cHEMRX4sgkkI1tY1GG6U-10" target="MwiZSBfzjzbO6cHmACTo-17" edge="1">
          <mxGeometry relative="1" as="geometry" />
        </mxCell>
        <mxCell id="cHEMRX4sgkkI1tY1GG6U-10" value="线索研判" style="whiteSpace=wrap;html=1;" parent="1" vertex="1">
          <mxGeometry x="130" y="360" width="90" height="30" as="geometry" />
        </mxCell>
        <mxCell id="cHEMRX4sgkkI1tY1GG6U-46" value="" style="edgeStyle=orthogonalEdgeStyle;rounded=0;orthogonalLoop=1;jettySize=auto;html=1;" parent="1" source="cHEMRX4sgkkI1tY1GG6U-13" target="cHEMRX4sgkkI1tY1GG6U-45" edge="1">
          <mxGeometry relative="1" as="geometry" />
        </mxCell>
        <mxCell id="cHEMRX4sgkkI1tY1GG6U-13" value="调查取证" style="whiteSpace=wrap;html=1;" parent="1" vertex="1">
          <mxGeometry x="130" y="530" width="90" height="30" as="geometry" />
        </mxCell>
        <mxCell id="cHEMRX4sgkkI1tY1GG6U-62" value="" style="edgeStyle=orthogonalEdgeStyle;rounded=0;orthogonalLoop=1;jettySize=auto;html=1;" parent="1" source="cHEMRX4sgkkI1tY1GG6U-15" target="cHEMRX4sgkkI1tY1GG6U-61" edge="1">
          <mxGeometry relative="1" as="geometry" />
        </mxCell>
        <mxCell id="cHEMRX4sgkkI1tY1GG6U-15" value="违法情节是否严重判断" style="whiteSpace=wrap;html=1;shadow=1;fillColor=#66B2FF;" parent="1" vertex="1">
          <mxGeometry x="270" y="780" width="90" height="30" as="geometry" />
        </mxCell>
        <mxCell id="cHEMRX4sgkkI1tY1GG6U-30" value="" style="edgeStyle=orthogonalEdgeStyle;rounded=0;orthogonalLoop=1;jettySize=auto;html=1;" parent="1" source="cHEMRX4sgkkI1tY1GG6U-23" target="cHEMRX4sgkkI1tY1GG6U-29" edge="1">
          <mxGeometry relative="1" as="geometry" />
        </mxCell>
        <mxCell id="cHEMRX4sgkkI1tY1GG6U-23" value="线索附件证据&lt;div&gt;自动命名&lt;/div&gt;" style="whiteSpace=wrap;html=1;fillColor=#66B2FF;" parent="1" vertex="1">
          <mxGeometry x="430" y="250" width="90" height="30" as="geometry" />
        </mxCell>
        <mxCell id="cHEMRX4sgkkI1tY1GG6U-28" style="edgeStyle=orthogonalEdgeStyle;rounded=0;orthogonalLoop=1;jettySize=auto;html=1;exitX=1;exitY=0.5;exitDx=0;exitDy=0;" parent="1" source="cHEMRX4sgkkI1tY1GG6U-26" target="cHEMRX4sgkkI1tY1GG6U-23" edge="1">
          <mxGeometry relative="1" as="geometry" />
        </mxCell>
        <mxCell id="cHEMRX4sgkkI1tY1GG6U-26" value="线索基本信息解析" style="whiteSpace=wrap;html=1;fillColor=#66B2FF;" parent="1" vertex="1">
          <mxGeometry x="280" y="250" width="100" height="30" as="geometry" />
        </mxCell>
        <mxCell id="cHEMRX4sgkkI1tY1GG6U-34" value="" style="edgeStyle=orthogonalEdgeStyle;rounded=0;orthogonalLoop=1;jettySize=auto;html=1;" parent="1" source="cHEMRX4sgkkI1tY1GG6U-29" target="cHEMRX4sgkkI1tY1GG6U-33" edge="1">
          <mxGeometry relative="1" as="geometry" />
        </mxCell>
        <mxCell id="cHEMRX4sgkkI1tY1GG6U-29" value="证据分类" style="whiteSpace=wrap;html=1;fillColor=#66B2FF;" parent="1" vertex="1">
          <mxGeometry x="570" y="250" width="70" height="30" as="geometry" />
        </mxCell>
        <mxCell id="cHEMRX4sgkkI1tY1GG6U-33" value="根据分类&lt;span style=&quot;background-color: transparent; color: light-dark(rgb(0, 0, 0), rgb(255, 255, 255));&quot;&gt;提取证据关键&lt;/span&gt;&lt;span style=&quot;background-color: transparent; color: light-dark(rgb(0, 0, 0), rgb(255, 255, 255));&quot;&gt;信息字段&lt;/span&gt;" style="whiteSpace=wrap;html=1;fillColor=#66B2FF;" parent="1" vertex="1">
          <mxGeometry x="700" y="250" width="90" height="30" as="geometry" />
        </mxCell>
        <mxCell id="cHEMRX4sgkkI1tY1GG6U-40" value="" style="edgeStyle=orthogonalEdgeStyle;rounded=0;orthogonalLoop=1;jettySize=auto;html=1;" parent="1" source="cHEMRX4sgkkI1tY1GG6U-37" target="cHEMRX4sgkkI1tY1GG6U-39" edge="1">
          <mxGeometry relative="1" as="geometry" />
        </mxCell>
        <mxCell id="cHEMRX4sgkkI1tY1GG6U-37" value="&lt;span style=&quot;background-color: transparent; color: light-dark(rgb(0, 0, 0), rgb(255, 255, 255));&quot;&gt;研判违法事实&lt;/span&gt;&lt;div&gt;&lt;span style=&quot;background-color: transparent; color: light-dark(rgb(0, 0, 0), rgb(255, 255, 255));&quot;&gt;是否成立&lt;/span&gt;&lt;/div&gt;" style="whiteSpace=wrap;html=1;fillColor=#66B2FF;" parent="1" vertex="1">
          <mxGeometry x="280" y="430" width="100" height="30" as="geometry" />
        </mxCell>
        <mxCell id="cHEMRX4sgkkI1tY1GG6U-82" value="" style="edgeStyle=orthogonalEdgeStyle;rounded=0;orthogonalLoop=1;jettySize=auto;html=1;" parent="1" target="cHEMRX4sgkkI1tY1GG6U-81" edge="1">
          <mxGeometry relative="1" as="geometry">
            <mxPoint x="220" y="375" as="sourcePoint" />
          </mxGeometry>
        </mxCell>
        <mxCell id="MwiZSBfzjzbO6cHmACTo-21" value="" style="edgeStyle=orthogonalEdgeStyle;rounded=0;orthogonalLoop=1;jettySize=auto;html=1;" parent="1" source="cHEMRX4sgkkI1tY1GG6U-39" target="MwiZSBfzjzbO6cHmACTo-20" edge="1">
          <mxGeometry relative="1" as="geometry" />
        </mxCell>
        <mxCell id="cHEMRX4sgkkI1tY1GG6U-39" value="&lt;span style=&quot;background-color: transparent; color: light-dark(rgb(0, 0, 0), rgb(255, 255, 255));&quot;&gt;研判是否具备&lt;/span&gt;&lt;div&gt;&lt;span style=&quot;background-color: transparent; color: light-dark(rgb(0, 0, 0), rgb(255, 255, 255));&quot;&gt;立案条件&lt;/span&gt;&lt;/div&gt;" style="whiteSpace=wrap;html=1;fillColor=#66B2FF;" parent="1" vertex="1">
          <mxGeometry x="440" y="430" width="100" height="30" as="geometry" />
        </mxCell>
        <mxCell id="cHEMRX4sgkkI1tY1GG6U-41" value="是" style="text;html=1;whiteSpace=wrap;strokeColor=none;fillColor=none;align=center;verticalAlign=middle;rounded=0;" parent="1" vertex="1">
          <mxGeometry x="590" y="470" width="60" height="30" as="geometry" />
        </mxCell>
        <mxCell id="cHEMRX4sgkkI1tY1GG6U-48" value="" style="edgeStyle=orthogonalEdgeStyle;rounded=0;orthogonalLoop=1;jettySize=auto;html=1;" parent="1" source="cHEMRX4sgkkI1tY1GG6U-45" target="cHEMRX4sgkkI1tY1GG6U-47" edge="1">
          <mxGeometry relative="1" as="geometry" />
        </mxCell>
        <mxCell id="cHEMRX4sgkkI1tY1GG6U-45" value="深入分析证据&lt;div&gt;判断缺少信息&lt;/div&gt;" style="whiteSpace=wrap;html=1;fillColor=#66B2FF;" parent="1" vertex="1">
          <mxGeometry x="270" y="530" width="90" height="30" as="geometry" />
        </mxCell>
        <mxCell id="cHEMRX4sgkkI1tY1GG6U-50" value="" style="edgeStyle=orthogonalEdgeStyle;rounded=0;orthogonalLoop=1;jettySize=auto;html=1;" parent="1" source="cHEMRX4sgkkI1tY1GG6U-47" target="cHEMRX4sgkkI1tY1GG6U-49" edge="1">
          <mxGeometry relative="1" as="geometry" />
        </mxCell>
        <mxCell id="cHEMRX4sgkkI1tY1GG6U-47" value="生成《询问笔录》" style="whiteSpace=wrap;html=1;fillColor=#66B2FF;" parent="1" vertex="1">
          <mxGeometry x="413.5" y="530" width="136.5" height="30" as="geometry" />
        </mxCell>
        <mxCell id="cHEMRX4sgkkI1tY1GG6U-53" style="edgeStyle=orthogonalEdgeStyle;rounded=0;orthogonalLoop=1;jettySize=auto;html=1;" parent="1" source="cHEMRX4sgkkI1tY1GG6U-49" target="cHEMRX4sgkkI1tY1GG6U-51" edge="1">
          <mxGeometry relative="1" as="geometry">
            <Array as="points">
              <mxPoint x="660" y="600" />
              <mxPoint x="320" y="600" />
            </Array>
          </mxGeometry>
        </mxCell>
        <mxCell id="cHEMRX4sgkkI1tY1GG6U-49" value="依据《询问笔录》打电话给当事人" style="whiteSpace=wrap;html=1;" parent="1" vertex="1">
          <mxGeometry x="600" y="530" width="136.5" height="30" as="geometry" />
        </mxCell>
        <mxCell id="cHEMRX4sgkkI1tY1GG6U-57" value="" style="edgeStyle=orthogonalEdgeStyle;rounded=0;orthogonalLoop=1;jettySize=auto;html=1;" parent="1" source="cHEMRX4sgkkI1tY1GG6U-51" target="cHEMRX4sgkkI1tY1GG6U-54" edge="1">
          <mxGeometry relative="1" as="geometry" />
        </mxCell>
        <mxCell id="cHEMRX4sgkkI1tY1GG6U-51" value="线下接收当事人补充材料" style="whiteSpace=wrap;html=1;" parent="1" vertex="1">
          <mxGeometry x="270" y="650" width="100" height="30" as="geometry" />
        </mxCell>
        <mxCell id="cHEMRX4sgkkI1tY1GG6U-58" value="" style="edgeStyle=orthogonalEdgeStyle;rounded=0;orthogonalLoop=1;jettySize=auto;html=1;" parent="1" source="cHEMRX4sgkkI1tY1GG6U-54" target="cHEMRX4sgkkI1tY1GG6U-55" edge="1">
          <mxGeometry relative="1" as="geometry" />
        </mxCell>
        <mxCell id="cHEMRX4sgkkI1tY1GG6U-54" value="线索附件证据&lt;div&gt;自动命名&lt;/div&gt;" style="whiteSpace=wrap;html=1;fillColor=#66B2FF;" parent="1" vertex="1">
          <mxGeometry x="410" y="650" width="90" height="30" as="geometry" />
        </mxCell>
        <mxCell id="cHEMRX4sgkkI1tY1GG6U-59" value="" style="edgeStyle=orthogonalEdgeStyle;rounded=0;orthogonalLoop=1;jettySize=auto;html=1;" parent="1" source="cHEMRX4sgkkI1tY1GG6U-55" target="cHEMRX4sgkkI1tY1GG6U-56" edge="1">
          <mxGeometry relative="1" as="geometry" />
        </mxCell>
        <mxCell id="cHEMRX4sgkkI1tY1GG6U-55" value="证据分类" style="whiteSpace=wrap;html=1;fillColor=#66B2FF;" parent="1" vertex="1">
          <mxGeometry x="550" y="650" width="70" height="30" as="geometry" />
        </mxCell>
        <mxCell id="cHEMRX4sgkkI1tY1GG6U-60" style="edgeStyle=orthogonalEdgeStyle;rounded=0;orthogonalLoop=1;jettySize=auto;html=1;entryX=0.5;entryY=0;entryDx=0;entryDy=0;" parent="1" source="cHEMRX4sgkkI1tY1GG6U-56" target="cHEMRX4sgkkI1tY1GG6U-15" edge="1">
          <mxGeometry relative="1" as="geometry">
            <Array as="points">
              <mxPoint x="720" y="730" />
              <mxPoint x="315" y="730" />
            </Array>
          </mxGeometry>
        </mxCell>
        <mxCell id="cHEMRX4sgkkI1tY1GG6U-56" value="根据分类&lt;span style=&quot;background-color: transparent; color: light-dark(rgb(0, 0, 0), rgb(255, 255, 255));&quot;&gt;提取关键&lt;/span&gt;&lt;span style=&quot;background-color: transparent; color: light-dark(rgb(0, 0, 0), rgb(255, 255, 255));&quot;&gt;信息字段&lt;/span&gt;" style="whiteSpace=wrap;html=1;fillColor=#66B2FF;" parent="1" vertex="1">
          <mxGeometry x="680" y="650" width="80" height="30" as="geometry" />
        </mxCell>
        <mxCell id="cHEMRX4sgkkI1tY1GG6U-64" value="" style="edgeStyle=orthogonalEdgeStyle;rounded=0;orthogonalLoop=1;jettySize=auto;html=1;" parent="1" source="cHEMRX4sgkkI1tY1GG6U-61" target="cHEMRX4sgkkI1tY1GG6U-63" edge="1">
          <mxGeometry relative="1" as="geometry" />
        </mxCell>
        <mxCell id="cHEMRX4sgkkI1tY1GG6U-61" value="裁量判罚建议" style="whiteSpace=wrap;html=1;fillColor=#66B2FF;" parent="1" vertex="1">
          <mxGeometry x="413.5" y="780" width="90" height="30" as="geometry" />
        </mxCell>
        <mxCell id="cHEMRX4sgkkI1tY1GG6U-76" value="" style="edgeStyle=orthogonalEdgeStyle;rounded=0;orthogonalLoop=1;jettySize=auto;html=1;" parent="1" source="cHEMRX4sgkkI1tY1GG6U-65" target="cHEMRX4sgkkI1tY1GG6U-75" edge="1">
          <mxGeometry relative="1" as="geometry">
            <Array as="points">
              <mxPoint x="750" y="885" />
            </Array>
          </mxGeometry>
        </mxCell>
        <mxCell id="MwiZSBfzjzbO6cHmACTo-37" style="edgeStyle=orthogonalEdgeStyle;rounded=0;orthogonalLoop=1;jettySize=auto;html=1;exitX=1;exitY=0.5;exitDx=0;exitDy=0;entryX=0.5;entryY=0;entryDx=0;entryDy=0;" parent="1" source="cHEMRX4sgkkI1tY1GG6U-63" target="cHEMRX4sgkkI1tY1GG6U-65" edge="1">
          <mxGeometry relative="1" as="geometry">
            <Array as="points">
              <mxPoint x="700" y="795" />
              <mxPoint x="700" y="840" />
              <mxPoint x="175" y="840" />
            </Array>
          </mxGeometry>
        </mxCell>
        <mxCell id="cHEMRX4sgkkI1tY1GG6U-63" value="生成《调查终结报告》" style="whiteSpace=wrap;html=1;fillColor=#66B2FF;" parent="1" vertex="1">
          <mxGeometry x="550" y="780" width="130" height="30" as="geometry" />
        </mxCell>
        <mxCell id="cHEMRX4sgkkI1tY1GG6U-69" value="" style="edgeStyle=orthogonalEdgeStyle;rounded=0;orthogonalLoop=1;jettySize=auto;html=1;" parent="1" source="cHEMRX4sgkkI1tY1GG6U-66" target="cHEMRX4sgkkI1tY1GG6U-68" edge="1">
          <mxGeometry relative="1" as="geometry" />
        </mxCell>
        <mxCell id="cHEMRX4sgkkI1tY1GG6U-66" value="行政处罚" style="whiteSpace=wrap;html=1;" parent="1" vertex="1">
          <mxGeometry x="130" y="1027" width="90" height="30" as="geometry" />
        </mxCell>
        <mxCell id="cHEMRX4sgkkI1tY1GG6U-71" value="" style="edgeStyle=orthogonalEdgeStyle;rounded=0;orthogonalLoop=1;jettySize=auto;html=1;" parent="1" source="cHEMRX4sgkkI1tY1GG6U-68" target="cHEMRX4sgkkI1tY1GG6U-70" edge="1">
          <mxGeometry relative="1" as="geometry" />
        </mxCell>
        <mxCell id="cHEMRX4sgkkI1tY1GG6U-68" value="处罚执行" style="whiteSpace=wrap;html=1;" parent="1" vertex="1">
          <mxGeometry x="130" y="1087" width="90" height="30" as="geometry" />
        </mxCell>
        <mxCell id="cHEMRX4sgkkI1tY1GG6U-70" value="结案归档" style="whiteSpace=wrap;html=1;" parent="1" vertex="1">
          <mxGeometry x="130" y="1150" width="90" height="30" as="geometry" />
        </mxCell>
        <mxCell id="cHEMRX4sgkkI1tY1GG6U-73" value="处罚" style="text;html=1;whiteSpace=wrap;strokeColor=none;fillColor=none;align=center;verticalAlign=middle;rounded=0;" parent="1" vertex="1">
          <mxGeometry x="170" y="910" width="60" height="30" as="geometry" />
        </mxCell>
        <mxCell id="MwiZSBfzjzbO6cHmACTo-38" style="edgeStyle=orthogonalEdgeStyle;rounded=0;orthogonalLoop=1;jettySize=auto;html=1;exitX=0.5;exitY=1;exitDx=0;exitDy=0;entryX=0.5;entryY=0;entryDx=0;entryDy=0;" parent="1" source="cHEMRX4sgkkI1tY1GG6U-75" target="cHEMRX4sgkkI1tY1GG6U-78" edge="1">
          <mxGeometry relative="1" as="geometry" />
        </mxCell>
        <mxCell id="cHEMRX4sgkkI1tY1GG6U-75" value="生成《（不予）行政处罚告知书》" style="whiteSpace=wrap;html=1;fillColor=#66B2FF;" parent="1" vertex="1">
          <mxGeometry x="700" y="960" width="110" height="30" as="geometry" />
        </mxCell>
        <mxCell id="cHEMRX4sgkkI1tY1GG6U-77" value="不予处罚" style="text;html=1;whiteSpace=wrap;strokeColor=none;fillColor=none;align=center;verticalAlign=middle;rounded=0;" parent="1" vertex="1">
          <mxGeometry x="240" y="860" width="60" height="30" as="geometry" />
        </mxCell>
        <mxCell id="cHEMRX4sgkkI1tY1GG6U-80" style="edgeStyle=orthogonalEdgeStyle;rounded=0;orthogonalLoop=1;jettySize=auto;html=1;entryX=1;entryY=0.5;entryDx=0;entryDy=0;" parent="1" source="cHEMRX4sgkkI1tY1GG6U-78" target="cHEMRX4sgkkI1tY1GG6U-70" edge="1">
          <mxGeometry relative="1" as="geometry">
            <Array as="points">
              <mxPoint x="710" y="1165" />
              <mxPoint x="710" y="1165" />
            </Array>
          </mxGeometry>
        </mxCell>
        <mxCell id="cHEMRX4sgkkI1tY1GG6U-78" value="线下通知当事人（自取，邮寄）" style="whiteSpace=wrap;html=1;" parent="1" vertex="1">
          <mxGeometry x="700" y="1150" width="110" height="30" as="geometry" />
        </mxCell>
        <mxCell id="MwiZSBfzjzbO6cHmACTo-15" value="" style="edgeStyle=orthogonalEdgeStyle;rounded=0;orthogonalLoop=1;jettySize=auto;html=1;" parent="1" source="cHEMRX4sgkkI1tY1GG6U-81" target="MwiZSBfzjzbO6cHmACTo-14" edge="1">
          <mxGeometry relative="1" as="geometry" />
        </mxCell>
        <mxCell id="cHEMRX4sgkkI1tY1GG6U-81" value="线索退回" style="whiteSpace=wrap;html=1;" parent="1" vertex="1">
          <mxGeometry x="315" y="360" width="100" height="30" as="geometry" />
        </mxCell>
        <mxCell id="cHEMRX4sgkkI1tY1GG6U-83" value="不符合接收要求" style="text;html=1;whiteSpace=wrap;strokeColor=none;fillColor=none;align=center;verticalAlign=middle;rounded=0;" parent="1" vertex="1">
          <mxGeometry x="240" y="340" width="60" height="30" as="geometry" />
        </mxCell>
        <mxCell id="cHEMRX4sgkkI1tY1GG6U-96" value="" style="shape=umlActor;verticalLabelPosition=bottom;verticalAlign=top;html=1;outlineConnect=0;" parent="1" vertex="1">
          <mxGeometry x="750" y="530" width="10" height="20" as="geometry" />
        </mxCell>
        <mxCell id="MwiZSBfzjzbO6cHmACTo-35" value="" style="edgeStyle=orthogonalEdgeStyle;rounded=0;orthogonalLoop=1;jettySize=auto;html=1;" parent="1" source="cHEMRX4sgkkI1tY1GG6U-65" target="cHEMRX4sgkkI1tY1GG6U-101" edge="1">
          <mxGeometry relative="1" as="geometry" />
        </mxCell>
        <mxCell id="cHEMRX4sgkkI1tY1GG6U-65" value="处罚告知" style="whiteSpace=wrap;html=1;" parent="1" vertex="1">
          <mxGeometry x="130" y="870" width="90" height="30" as="geometry" />
        </mxCell>
        <mxCell id="cHEMRX4sgkkI1tY1GG6U-102" value="" style="edgeStyle=orthogonalEdgeStyle;rounded=0;orthogonalLoop=1;jettySize=auto;html=1;entryX=0.5;entryY=0;entryDx=0;entryDy=0;" parent="1" source="cHEMRX4sgkkI1tY1GG6U-101" target="cHEMRX4sgkkI1tY1GG6U-66" edge="1">
          <mxGeometry relative="1" as="geometry" />
        </mxCell>
        <mxCell id="cHEMRX4sgkkI1tY1GG6U-101" value="生成《行政处罚告知书》" style="whiteSpace=wrap;html=1;fillColor=#66B2FF;" parent="1" vertex="1">
          <mxGeometry x="130" y="960" width="90" height="30" as="geometry" />
        </mxCell>
        <mxCell id="cHEMRX4sgkkI1tY1GG6U-104" value="" style="shape=umlActor;verticalLabelPosition=bottom;verticalAlign=top;html=1;outlineConnect=0;" parent="1" vertex="1">
          <mxGeometry x="230" y="1032" width="10" height="20" as="geometry" />
        </mxCell>
        <mxCell id="cHEMRX4sgkkI1tY1GG6U-105" value="" style="shape=umlActor;verticalLabelPosition=bottom;verticalAlign=top;html=1;outlineConnect=0;" parent="1" vertex="1">
          <mxGeometry x="230" y="1092" width="10" height="20" as="geometry" />
        </mxCell>
        <mxCell id="MwiZSBfzjzbO6cHmACTo-14" value="已告知" style="text;html=1;whiteSpace=wrap;strokeColor=none;fillColor=none;align=center;verticalAlign=middle;rounded=0;" parent="1" vertex="1">
          <mxGeometry x="460" y="360" width="60" height="30" as="geometry" />
        </mxCell>
        <mxCell id="MwiZSBfzjzbO6cHmACTo-19" value="" style="edgeStyle=orthogonalEdgeStyle;rounded=0;orthogonalLoop=1;jettySize=auto;html=1;" parent="1" source="MwiZSBfzjzbO6cHmACTo-17" target="cHEMRX4sgkkI1tY1GG6U-37" edge="1">
          <mxGeometry relative="1" as="geometry" />
        </mxCell>
        <mxCell id="MwiZSBfzjzbO6cHmACTo-17" value="线索接收" style="whiteSpace=wrap;html=1;" parent="1" vertex="1">
          <mxGeometry x="130" y="430" width="90" height="30" as="geometry" />
        </mxCell>
        <mxCell id="MwiZSBfzjzbO6cHmACTo-20" value="建议立案" style="whiteSpace=wrap;html=1;" parent="1" vertex="1">
          <mxGeometry x="570" y="430" width="80" height="30" as="geometry" />
        </mxCell>
        <mxCell id="MwiZSBfzjzbO6cHmACTo-22" value="" style="shape=umlActor;verticalLabelPosition=bottom;verticalAlign=top;html=1;outlineConnect=0;" parent="1" vertex="1">
          <mxGeometry x="230" y="175" width="10" height="20" as="geometry" />
        </mxCell>
        <mxCell id="MwiZSBfzjzbO6cHmACTo-23" value="" style="shape=umlActor;verticalLabelPosition=bottom;verticalAlign=top;html=1;outlineConnect=0;" parent="1" vertex="1">
          <mxGeometry x="605" y="403" width="10" height="20" as="geometry" />
        </mxCell>
        <mxCell id="MwiZSBfzjzbO6cHmACTo-25" value="" style="shape=umlActor;verticalLabelPosition=bottom;verticalAlign=top;html=1;outlineConnect=0;" parent="1" vertex="1">
          <mxGeometry x="340" y="620" width="10" height="20" as="geometry" />
        </mxCell>
        <mxCell id="MwiZSBfzjzbO6cHmACTo-26" value="" style="shape=umlActor;verticalLabelPosition=bottom;verticalAlign=top;html=1;outlineConnect=0;" parent="1" vertex="1">
          <mxGeometry x="770" y="1120" width="10" height="20" as="geometry" />
        </mxCell>
        <mxCell id="MwiZSBfzjzbO6cHmACTo-27" value="" style="shape=umlActor;verticalLabelPosition=bottom;verticalAlign=top;html=1;outlineConnect=0;" parent="1" vertex="1">
          <mxGeometry x="190" y="336" width="10" height="20" as="geometry" />
        </mxCell>
        <mxCell id="MwiZSBfzjzbO6cHmACTo-28" value="符合接收要求" style="text;html=1;whiteSpace=wrap;strokeColor=none;fillColor=none;align=center;verticalAlign=middle;rounded=0;" parent="1" vertex="1">
          <mxGeometry x="175" y="398" width="60" height="30" as="geometry" />
        </mxCell>
        <mxCell id="MwiZSBfzjzbO6cHmACTo-29" value="" style="shape=umlActor;verticalLabelPosition=bottom;verticalAlign=top;html=1;outlineConnect=0;" parent="1" vertex="1">
          <mxGeometry x="190" y="1130" width="10" height="20" as="geometry" />
        </mxCell>
        <mxCell id="MwiZSBfzjzbO6cHmACTo-30" value="" style="shape=umlActor;verticalLabelPosition=bottom;verticalAlign=top;html=1;outlineConnect=0;" parent="1" vertex="1">
          <mxGeometry x="190" y="1130" width="10" height="20" as="geometry" />
        </mxCell>
      </root>
    </mxGraphModel>
  </diagram>
</mxfile>
